<svg width="196" height="189" viewBox="0 0 196 189" fill="none" xmlns="http://www.w3.org/2000/svg">
<g clip-path="url(#clip0_62_134)">
<path d="M0 164.63C0 178.091 11.3148 189 25.2723 189H170.728C184.687 189 196 178.089 196 164.63V24.3698C196 10.9092 184.685 0 170.728 0H25.2723C11.3133 0 0 10.9107 0 24.3698V164.63Z" fill="#563D7C"/>
<path d="M81.2769 83.6016V56.8363H105.709C108.036 56.8363 110.28 57.0233 112.441 57.3972C114.601 57.7712 116.513 58.439 118.175 59.4006C119.837 60.3623 121.167 61.6978 122.164 63.4074C123.161 65.117 123.66 67.3073 123.66 69.9785C123.66 74.7867 122.164 78.2592 119.172 80.3961C116.18 82.5331 112.358 83.6016 107.704 83.6016H81.2769ZM55.1824 37.2832V151.717H112.69C118.009 151.717 123.189 151.076 128.23 149.794C133.272 148.511 137.76 146.535 141.693 143.864C145.627 141.192 148.757 137.747 151.084 133.526C153.411 129.306 154.574 124.31 154.574 118.541C154.574 111.382 152.774 105.265 149.173 100.19C145.571 95.1144 140.114 91.5617 132.801 89.5316C138.12 87.0741 142.136 83.9221 144.851 80.0756C147.566 76.2291 148.923 71.421 148.923 65.6512C148.923 60.3088 148.009 55.8213 146.181 52.1884C144.352 48.5556 141.776 45.644 138.452 43.4536C135.128 41.2633 131.139 39.6873 126.485 38.7256C121.831 37.764 116.679 37.2832 111.028 37.2832H55.1824ZM81.2769 132.164V100.751H109.698C115.349 100.751 119.892 102.006 123.327 104.517C126.762 107.028 128.48 111.222 128.48 117.098C128.48 120.09 127.953 122.547 126.901 124.471C125.848 126.394 124.435 127.917 122.662 129.038C120.89 130.16 118.84 130.962 116.513 131.442C114.186 131.923 111.748 132.164 109.2 132.164H81.2769Z" fill="white"/>
</g>
<defs>
<clipPath id="clip0_62_134">
<rect width="196" height="189" fill="white"/>
</clipPath>
</defs>
</svg>
