<svg width="196" height="196" viewBox="0 0 196 196" fill="none" xmlns="http://www.w3.org/2000/svg">
<g clip-path="url(#clip0_62_120)">
<g filter="url(#filter0_d_62_120)">
<path d="M163.962 0H32.0385C16.4259 0 3.76929 12.6566 3.76929 28.2692V160.192C3.76929 175.805 16.4259 188.462 32.0385 188.462H163.962C179.574 188.462 192.231 175.805 192.231 160.192V28.2692C192.231 12.6566 179.574 0 163.962 0Z" fill="#2A2C2A"/>
</g>
<path d="M32.9093 108.431V93.539H51.5022V92.6682H32.9093V79.0828H52.6778V78.2119H32.0385V109.301H52.852V108.431H32.9093ZM69.6161 86.9205L61.9089 97.0656L54.376 86.9205H53.2439L61.3864 97.7196L52.4601 109.301H53.5052L61.9089 98.3726L70.3563 109.301H71.4449L62.475 97.7196L70.6611 86.9205H69.6161ZM74.0575 116.965V103.031H74.1445C74.667 105.064 75.6975 106.696 77.2361 107.93C78.7747 109.164 80.7341 109.78 83.1145 109.78C84.653 109.78 86.0172 109.468 87.2075 108.844C88.3976 108.221 89.3918 107.372 90.1901 106.297C90.9885 105.223 91.598 103.975 92.019 102.553C92.4399 101.13 92.6503 99.6353 92.6503 98.0673C92.6503 96.3843 92.4326 94.8305 91.9972 93.4084C91.5618 91.986 90.9304 90.7523 90.1031 89.7073C89.2757 88.6622 88.2742 87.8495 87.0986 87.2689C85.9229 86.6883 84.5949 86.398 83.1145 86.398C81.9823 86.398 80.93 86.5649 79.9575 86.8988C78.9851 87.2326 78.1214 87.7042 77.3668 88.3139C76.612 88.9235 75.9589 89.6419 75.4073 90.4693C74.8558 91.2966 74.4349 92.2038 74.1445 93.1907H74.0575V86.9205H73.1866V116.965H74.0575ZM83.1145 108.953C80.3857 108.953 78.1941 108.017 76.5394 106.145C74.8848 104.272 74.0575 101.58 74.0575 98.0673C74.0575 96.6161 74.2606 95.2375 74.667 93.9309C75.0735 92.6246 75.6613 91.478 76.4306 90.491C77.1999 89.5041 78.1505 88.7203 79.2827 88.1397C80.4147 87.5591 81.692 87.2689 83.1145 87.2689C84.5659 87.2689 85.8358 87.5591 86.9244 88.1397C88.013 88.7203 88.9128 89.5113 89.6241 90.5128C90.3353 91.5143 90.8723 92.661 91.2352 93.9527C91.598 95.2441 91.7794 96.6161 91.7794 98.0673C91.7794 99.3743 91.6126 100.673 91.2787 101.965C90.9449 103.257 90.4297 104.417 89.7329 105.448C89.0363 106.478 88.1436 107.321 87.0551 107.974C85.9664 108.627 84.653 108.953 83.1145 108.953ZM97.4403 109.301V96.6303C97.4403 95.4119 97.6146 94.2213 97.9623 93.06C98.311 91.8989 98.8481 90.8757 99.5736 89.9903C100.299 89.1049 101.221 88.4083 102.338 87.9003C103.456 87.3923 104.785 87.1817 106.322 87.2689V86.398C104.987 86.369 103.819 86.5141 102.818 86.8335C101.816 87.1527 100.952 87.5882 100.227 88.1397C99.5011 88.6912 98.9206 89.3372 98.4853 90.0774C98.0499 90.8176 97.7305 91.6086 97.527 92.4505H97.4403V86.9205H96.5696V109.301H97.4403ZM107.412 98.285H126.134C126.193 96.7471 126.04 95.2667 125.677 93.8439C125.315 92.4214 124.734 91.1588 123.936 90.0556C123.138 88.9525 122.107 88.0671 120.844 87.3995C119.582 86.7318 118.08 86.398 116.337 86.398C115.09 86.398 113.87 86.6592 112.68 87.1817C111.49 87.7042 110.445 88.4663 109.545 89.4678C108.645 90.4693 107.92 91.6958 107.367 93.1472C106.816 94.5986 106.54 96.2533 106.54 98.1106C106.54 99.7653 106.73 101.312 107.106 102.749C107.484 104.186 108.065 105.433 108.849 106.493C109.632 107.553 110.641 108.372 111.875 108.953C113.108 109.534 114.596 109.809 116.337 109.78C118.892 109.78 121.04 109.062 122.782 107.625C124.524 106.188 125.554 104.164 125.873 101.551H125.003C124.626 104.018 123.66 105.869 122.107 107.103C120.554 108.337 118.602 108.953 116.251 108.953C114.654 108.953 113.304 108.678 112.202 108.126C111.098 107.574 110.198 106.819 109.502 105.862C108.804 104.904 108.29 103.779 107.955 102.487C107.622 101.196 107.44 99.7945 107.412 98.285ZM125.264 97.4143H107.412C107.498 95.8472 107.789 94.4394 108.282 93.1907C108.776 91.9425 109.422 90.8757 110.22 89.9903C111.018 89.1049 111.947 88.43 113.006 87.9656C114.066 87.5011 115.206 87.2689 116.425 87.2689C117.876 87.2689 119.154 87.5374 120.256 88.0744C121.36 88.6114 122.281 89.3444 123.022 90.2734C123.762 91.2023 124.321 92.2836 124.698 93.5173C125.075 94.7513 125.264 96.0498 125.264 97.4143ZM144.205 93.539H145.076C145.076 91.0426 144.35 89.2283 142.899 88.0962C141.448 86.9641 139.474 86.398 136.977 86.398C135.584 86.398 134.408 86.5722 133.451 86.9205C132.492 87.2689 131.708 87.7188 131.099 88.2704C130.489 88.8219 130.054 89.4315 129.793 90.0991C129.531 90.7668 129.401 91.4054 129.401 92.015C129.401 93.2343 129.618 94.2067 130.054 94.9322C130.489 95.6578 131.171 96.2241 132.1 96.6303C132.739 96.9205 133.465 97.1825 134.278 97.4143C135.09 97.647 136.033 97.893 137.108 98.1549C138.066 98.3867 139.009 98.6195 139.938 98.8513C140.867 99.0831 141.687 99.3959 142.399 99.7879C143.109 100.179 143.69 100.68 144.14 101.29C144.59 101.9 144.815 102.698 144.815 103.684C144.815 104.643 144.59 105.455 144.14 106.123C143.69 106.79 143.117 107.335 142.42 107.756C141.723 108.176 140.947 108.482 140.09 108.67C139.234 108.859 138.4 108.953 137.586 108.953C134.945 108.953 132.92 108.366 131.512 107.19C130.104 106.014 129.401 104.164 129.401 101.638H128.53C128.53 104.454 129.292 106.515 130.816 107.821C132.34 109.127 134.596 109.78 137.586 109.78C138.545 109.78 139.51 109.672 140.482 109.454C141.455 109.236 142.325 108.88 143.095 108.387C143.864 107.894 144.489 107.255 144.967 106.472C145.446 105.688 145.685 104.729 145.685 103.598C145.685 102.523 145.475 101.653 145.054 100.985C144.634 100.318 144.082 99.7653 143.399 99.33C142.717 98.8946 141.948 98.5535 141.092 98.3066C140.235 98.0607 139.372 97.8204 138.501 97.5886C137.282 97.2691 136.215 96.993 135.3 96.7612C134.386 96.5294 133.537 96.2533 132.753 95.9339C131.998 95.6145 131.396 95.1574 130.947 94.5619C130.496 93.9672 130.271 93.1182 130.271 92.015C130.271 91.8119 130.33 91.449 130.446 90.9265C130.561 90.404 130.838 89.8742 131.273 89.3372C131.708 88.8002 132.376 88.3212 133.276 87.9003C134.176 87.4793 135.41 87.2689 136.977 87.2689C138.051 87.2689 139.031 87.385 139.917 87.6172C140.801 87.8495 141.564 88.2195 142.203 88.7276C142.841 89.2356 143.334 89.8815 143.683 90.6653C144.031 91.449 144.205 92.4069 144.205 93.539ZM164.366 93.539H165.236C165.236 91.0426 164.511 89.2283 163.06 88.0962C161.608 86.9641 159.634 86.398 157.137 86.398C155.745 86.398 154.569 86.5722 153.61 86.9205C152.653 87.2689 151.869 87.7188 151.259 88.2704C150.65 88.8219 150.214 89.4315 149.953 90.0991C149.691 90.7668 149.561 91.4054 149.561 92.015C149.561 93.2343 149.779 94.2067 150.214 94.9322C150.65 95.6578 151.332 96.2241 152.261 96.6303C152.9 96.9205 153.625 97.1825 154.438 97.4143C155.251 97.647 156.194 97.893 157.268 98.1549C158.226 98.3867 159.17 98.6195 160.098 98.8513C161.027 99.0831 161.847 99.3959 162.558 99.7879C163.27 100.179 163.85 100.68 164.301 101.29C164.75 101.9 164.975 102.698 164.975 103.684C164.975 104.643 164.75 105.455 164.301 106.123C163.85 106.79 163.277 107.335 162.58 107.756C161.884 108.176 161.107 108.482 160.251 108.67C159.394 108.859 158.56 108.953 157.747 108.953C155.106 108.953 153.081 108.366 151.673 107.19C150.265 106.014 149.561 104.164 149.561 101.638H148.69C148.69 104.454 149.452 106.515 150.977 107.821C152.5 109.127 154.757 109.78 157.747 109.78C158.705 109.78 159.67 109.672 160.643 109.454C161.615 109.236 162.486 108.88 163.256 108.387C164.025 107.894 164.648 107.255 165.128 106.472C165.607 105.688 165.846 104.729 165.846 103.598C165.846 102.523 165.636 101.653 165.215 100.985C164.794 100.318 164.242 99.7653 163.56 99.33C162.878 98.8946 162.109 98.5535 161.252 98.3066C160.396 98.0607 159.533 97.8204 158.662 97.5886C157.443 97.2691 156.376 96.993 155.461 96.7612C154.547 96.5294 153.698 96.2533 152.914 95.9339C152.159 95.6145 151.557 95.1574 151.107 94.5619C150.657 93.9672 150.432 93.1182 150.432 92.015C150.432 91.8119 150.49 91.449 150.606 90.9265C150.722 90.404 150.998 89.8742 151.434 89.3372C151.869 88.8002 152.536 88.3212 153.436 87.9003C154.336 87.4793 155.57 87.2689 157.137 87.2689C158.212 87.2689 159.192 87.385 160.076 87.6172C160.962 87.8495 161.724 88.2195 162.362 88.7276C163.001 89.2356 163.495 89.8815 163.843 90.6653C164.191 91.449 164.366 92.4069 164.366 93.539Z" fill="white"/>
</g>
<defs>
<filter id="filter0_d_62_120" x="-0.230713" y="0" width="196.462" height="196.462" filterUnits="userSpaceOnUse" color-interpolation-filters="sRGB">
<feFlood flood-opacity="0" result="BackgroundImageFix"/>
<feColorMatrix in="SourceAlpha" type="matrix" values="0 0 0 0 0 0 0 0 0 0 0 0 0 0 0 0 0 0 127 0" result="hardAlpha"/>
<feOffset dy="4"/>
<feGaussianBlur stdDeviation="2"/>
<feComposite in2="hardAlpha" operator="out"/>
<feColorMatrix type="matrix" values="0 0 0 0 0 0 0 0 0 0 0 0 0 0 0 0 0 0 0.25 0"/>
<feBlend mode="normal" in2="BackgroundImageFix" result="effect1_dropShadow_62_120"/>
<feBlend mode="normal" in="SourceGraphic" in2="effect1_dropShadow_62_120" result="shape"/>
</filter>
<clipPath id="clip0_62_120">
<rect width="196" height="196" fill="white"/>
</clipPath>
</defs>
</svg>
