<svg width="196" height="196" viewBox="0 0 196 196" fill="none" xmlns="http://www.w3.org/2000/svg">
<g clip-path="url(#clip0_62_103)">
<g filter="url(#filter0_d_62_103)">
<path d="M163.962 0H32.0385C16.4259 0 3.76929 12.6566 3.76929 28.2692V160.192C3.76929 175.805 16.4259 188.462 32.0385 188.462H163.962C179.574 188.462 192.231 175.805 192.231 160.192V28.2692C192.231 12.6566 179.574 0 163.962 0Z" fill="#EFE815"/>
</g>
<path d="M137.988 149.073C140.532 153.478 144.095 156.588 149.948 156.588C155.036 156.588 158.344 153.996 158.344 150.368C158.344 146.222 155.036 144.667 149.439 142.076L146.385 140.78C137.479 136.893 131.626 132.229 131.626 122.123C131.626 112.794 138.497 105.538 149.439 105.538C157.326 105.538 162.924 108.389 166.741 115.644L157.326 121.864C155.29 117.977 153.001 116.422 149.439 116.422C145.876 116.422 143.586 118.754 143.586 121.864C143.586 125.491 145.876 127.046 151.22 129.378L154.273 130.674C164.705 135.339 170.558 139.744 170.558 150.368C170.558 161.511 161.906 167.73 150.202 167.73C138.751 167.73 131.372 162.289 127.81 155.033L137.988 149.073ZM94.7312 150.109C96.7666 153.478 98.294 156.588 102.619 156.588C106.691 156.588 109.235 155.033 109.235 148.814V105.797H121.448V148.295C121.448 161.252 114.069 166.953 103.128 166.953C93.2046 166.953 87.6067 161.77 84.8077 155.551L94.7312 150.109Z" fill="black"/>
</g>
<defs>
<filter id="filter0_d_62_103" x="-0.230713" y="0" width="196.462" height="196.462" filterUnits="userSpaceOnUse" color-interpolation-filters="sRGB">
<feFlood flood-opacity="0" result="BackgroundImageFix"/>
<feColorMatrix in="SourceAlpha" type="matrix" values="0 0 0 0 0 0 0 0 0 0 0 0 0 0 0 0 0 0 127 0" result="hardAlpha"/>
<feOffset dy="4"/>
<feGaussianBlur stdDeviation="2"/>
<feComposite in2="hardAlpha" operator="out"/>
<feColorMatrix type="matrix" values="0 0 0 0 0 0 0 0 0 0 0 0 0 0 0 0 0 0 0.25 0"/>
<feBlend mode="normal" in2="BackgroundImageFix" result="effect1_dropShadow_62_103"/>
<feBlend mode="normal" in="SourceGraphic" in2="effect1_dropShadow_62_103" result="shape"/>
</filter>
<clipPath id="clip0_62_103">
<rect width="196" height="196" fill="white"/>
</clipPath>
</defs>
</svg>
