<svg width="132" height="132" viewBox="0 0 132 132" fill="none" xmlns="http://www.w3.org/2000/svg">
<g clip-path="url(#clip0_62_160)">
<mask id="mask0_62_160" style="mask-type:luminance" maskUnits="userSpaceOnUse" x="0" y="0" width="132" height="132">
<path d="M132 0H0V132H132V0Z" fill="white"/>
</mask>
<g mask="url(#mask0_62_160)">
<path d="M66 132C102.451 132 132 102.451 132 66C132 29.5492 102.451 0 66 0C29.5492 0 0 29.5492 0 66C0 102.451 29.5492 132 66 132Z" fill="#0A66C2"/>
<path d="M89.3449 89.3581H79.5483V74.0183C79.5483 70.357 79.4706 65.652 74.4436 65.652C69.3386 65.652 68.5524 69.6351 68.5524 73.7469V89.3581H58.7555V57.8016H68.1656V62.107H68.2945C69.6094 59.632 72.8062 57.0152 77.5757 57.0152C87.5013 57.0152 89.3317 63.5508 89.3317 72.0457L89.3449 89.3581ZM47.7082 53.4832C44.55 53.4832 42.0234 50.9309 42.0234 47.7984C42.0234 44.666 44.5629 42.1136 47.7082 42.1136C50.8535 42.1136 53.393 44.666 53.393 47.7984C53.393 50.9309 50.8406 53.4832 47.7082 53.4832ZM52.6195 89.3581H42.7969V57.8016H52.6195V89.3581ZM94.2436 33H37.8855C35.1914 33 33 35.127 33 37.7695V94.3595C33 96.9892 35.1785 99.1291 37.8855 99.1291H94.2304C96.9247 99.1291 99.1291 97.0017 99.1291 94.3595V37.7695C99.1291 35.127 96.9247 33 94.2436 33Z" fill="white"/>
</g>
</g>
<defs>
<clipPath id="clip0_62_160">
<rect width="132" height="132" fill="white"/>
</clipPath>
</defs>
</svg>
