<svg width="205" height="206" viewBox="0 0 205 206" fill="none" xmlns="http://www.w3.org/2000/svg">
<g filter="url(#filter0_d_62_142)">
<path d="M170.801 0.913086H33.4796C17.228 0.913086 4.05347 14.0876 4.05347 30.3392V167.661C4.05347 183.912 17.228 197.087 33.4796 197.087H170.801C187.053 197.087 200.227 183.912 200.227 167.661V30.3392C200.227 14.0876 187.053 0.913086 170.801 0.913086Z" fill="#030216"/>
</g>
<path d="M79.3842 72.3203L82.989 69.7168C81.8597 68.1533 79.8513 67.496 78.0162 68.0893C76.181 68.6828 74.9376 70.3916 74.9376 72.3203H79.3842ZM106.064 156.806C74.1386 156.806 48.258 130.926 48.258 98.9999H39.3647C39.3647 135.837 69.2269 165.699 106.064 165.699V156.806ZM163.87 98.9999C163.87 130.926 137.99 156.806 106.064 156.806V165.699C142.9 165.699 172.763 135.837 172.763 98.9999H163.87ZM106.064 41.194C137.99 41.194 163.87 67.0746 163.87 98.9999H172.763C172.763 62.163 142.9 32.3008 106.064 32.3008V41.194ZM106.064 32.3008C69.2269 32.3008 39.3647 62.163 39.3647 98.9999H48.258C48.258 67.0746 74.1386 41.194 106.064 41.194V32.3008ZM83.8308 139.019V72.3203H74.9376V139.019H83.8308ZM75.7794 74.9238L133.586 154.962L140.795 149.756L82.989 69.7168L75.7794 74.9238ZM128.297 67.8737V121.233H137.19V67.8737H128.297Z" fill="white"/>
<defs>
<filter id="filter0_d_62_142" x="0.0534668" y="0.913086" width="204.174" height="204.174" filterUnits="userSpaceOnUse" color-interpolation-filters="sRGB">
<feFlood flood-opacity="0" result="BackgroundImageFix"/>
<feColorMatrix in="SourceAlpha" type="matrix" values="0 0 0 0 0 0 0 0 0 0 0 0 0 0 0 0 0 0 127 0" result="hardAlpha"/>
<feOffset dy="4"/>
<feGaussianBlur stdDeviation="2"/>
<feComposite in2="hardAlpha" operator="out"/>
<feColorMatrix type="matrix" values="0 0 0 0 0 0 0 0 0 0 0 0 0 0 0 0 0 0 0.25 0"/>
<feBlend mode="normal" in2="BackgroundImageFix" result="effect1_dropShadow_62_142"/>
<feBlend mode="normal" in="SourceGraphic" in2="effect1_dropShadow_62_142" result="shape"/>
</filter>
</defs>
</svg>
