<svg width="196" height="196" viewBox="0 0 196 196" fill="none" xmlns="http://www.w3.org/2000/svg">
<g clip-path="url(#clip0_62_112)">
<g filter="url(#filter0_d_62_112)">
<path d="M163.962 0H32.0385C16.4259 0 3.76929 12.6566 3.76929 28.2692V160.192C3.76929 175.805 16.4259 188.462 32.0385 188.462H163.962C179.574 188.462 192.231 175.805 192.231 160.192V28.2692C192.231 12.6566 179.574 0 163.962 0Z" fill="#0E3611"/>
</g>
<path d="M98 163.962C96.0975 163.962 94.3222 163.453 92.6739 162.561L75.808 152.509C73.2718 151.109 74.5398 150.6 75.3008 150.345C78.7246 149.199 79.3587 148.945 82.9094 146.91C83.2898 146.654 83.7971 146.781 84.1776 147.037L97.1123 154.8C97.6193 155.054 98.2535 155.054 98.6342 154.8L149.232 125.402C149.739 125.148 149.993 124.639 149.993 124.003V65.3375C149.993 64.7012 149.739 64.1922 149.232 63.9377L98.6342 34.6685C98.1272 34.414 97.493 34.414 97.1123 34.6685L46.5145 63.9377C46.0072 64.1922 45.7537 64.8284 45.7537 65.3375V124.003C45.7537 124.512 46.0072 125.148 46.5145 125.402L60.337 133.42C67.8188 137.238 72.5109 132.784 72.5109 128.329V70.4277C72.5109 69.6642 73.1449 68.9007 74.0326 68.9007H80.5C81.2608 68.9007 82.0218 69.5369 82.0218 70.4277V128.329C82.0218 138.383 76.5688 144.237 67.058 144.237C64.1413 144.237 61.8587 144.237 55.3913 141.055L42.0761 133.42C38.779 131.511 36.75 127.948 36.75 124.13V65.4648C36.75 61.647 38.779 58.0839 42.0761 56.1749L92.6739 26.7786C95.844 24.997 100.156 24.997 103.326 26.7786L153.924 56.1749C157.221 58.0839 159.25 61.647 159.25 65.4648V124.13C159.25 127.948 157.221 131.511 153.924 133.42L103.326 162.817C101.678 163.58 99.7753 163.962 98 163.962ZM113.598 123.621C91.4058 123.621 86.8406 113.441 86.8406 104.788C86.8406 104.023 87.4746 103.26 88.3624 103.26H94.9563C95.7177 103.26 96.3519 103.769 96.3519 104.532C97.3658 111.277 100.282 114.586 113.724 114.586C124.377 114.586 128.942 112.168 128.942 106.441C128.942 103.133 127.674 100.715 111.061 99.0602C97.2396 97.6609 88.6159 94.6068 88.6159 83.5352C88.6159 73.2274 97.2396 67.1191 111.695 67.1191C127.928 67.1191 135.917 72.7184 136.931 84.935C136.931 85.3168 136.804 85.6986 136.551 86.0804C136.297 86.3349 135.917 86.5894 135.536 86.5894H128.942C128.308 86.5894 127.674 86.0804 127.547 85.444C126.025 78.445 122.094 76.1543 111.695 76.1543C100.029 76.1543 98.6342 80.2266 98.6342 83.2807C98.6342 86.9711 100.282 88.1165 116.007 90.1525C131.606 92.1887 138.96 95.1157 138.96 106.06C138.833 117.258 129.703 123.621 113.598 123.621Z" fill="#539E43"/>
</g>
<defs>
<filter id="filter0_d_62_112" x="-0.230713" y="0" width="196.462" height="196.462" filterUnits="userSpaceOnUse" color-interpolation-filters="sRGB">
<feFlood flood-opacity="0" result="BackgroundImageFix"/>
<feColorMatrix in="SourceAlpha" type="matrix" values="0 0 0 0 0 0 0 0 0 0 0 0 0 0 0 0 0 0 127 0" result="hardAlpha"/>
<feOffset dy="4"/>
<feGaussianBlur stdDeviation="2"/>
<feComposite in2="hardAlpha" operator="out"/>
<feColorMatrix type="matrix" values="0 0 0 0 0 0 0 0 0 0 0 0 0 0 0 0 0 0 0.25 0"/>
<feBlend mode="normal" in2="BackgroundImageFix" result="effect1_dropShadow_62_112"/>
<feBlend mode="normal" in="SourceGraphic" in2="effect1_dropShadow_62_112" result="shape"/>
</filter>
<clipPath id="clip0_62_112">
<rect width="196" height="196" fill="white"/>
</clipPath>
</defs>
</svg>
