<svg width="196" height="196" viewBox="0 0 196 196" fill="none" xmlns="http://www.w3.org/2000/svg">
<g clip-path="url(#clip0_62_107)">
<g filter="url(#filter0_d_62_107)">
<path d="M163.962 0H32.0385C16.4258 0 3.76923 12.6566 3.76923 28.2692V160.192C3.76923 175.805 16.4258 188.462 32.0385 188.462H163.962C179.574 188.462 192.231 175.805 192.231 160.192V28.2692C192.231 12.6566 179.574 0 163.962 0Z" fill="#0D1A5B"/>
</g>
<path d="M97.918 106.326C104.787 106.326 110.355 100.758 110.355 93.8896C110.355 87.0211 104.787 81.4531 97.918 81.4531C91.0495 81.4531 85.4814 87.0211 85.4814 93.8896C85.4814 100.758 91.0495 106.326 97.918 106.326Z" fill="#00D8FF"/>
<path d="M97.9161 71.572C113.987 71.572 129.254 73.8377 140.861 77.8333C153.751 82.2708 161.613 88.8316 161.613 93.8867C161.613 99.2718 153.122 106.262 139.334 110.83C128.357 114.467 113.671 116.449 97.9161 116.449C81.3662 116.449 66.5143 114.506 55.6649 110.797C48.8728 108.476 43.2636 105.459 39.4189 102.167C35.9641 99.2077 34.2198 96.2705 34.2198 93.8867C34.2198 88.8146 41.7817 82.345 54.3939 77.9478C66.005 73.8998 81.6452 71.572 97.9161 71.572ZM97.9161 65.6213C81.013 65.6213 64.7178 68.0468 52.4349 72.3288C37.6874 77.4705 28.2692 85.5284 28.2692 93.8867C28.2692 102.52 38.3798 111.178 53.7404 116.428C65.2864 120.375 80.7626 122.4 97.9161 122.4C114.265 122.4 129.569 120.334 141.206 116.479C157.174 111.188 167.564 102.635 167.564 93.8867C167.564 85.4981 157.842 77.386 142.797 72.2068C130.529 67.9834 114.615 65.6213 97.9161 65.6213ZM78.4784 82.801C86.507 68.8793 96.0965 56.7862 105.356 48.728C115.64 39.7786 125.252 36.2448 129.63 38.7701C134.295 41.4601 136.109 52.3086 133.178 66.5347C130.845 77.8604 125.225 91.5729 117.355 105.221C109.086 119.558 99.9836 131.453 91.3507 138.999C85.9464 143.722 80.5306 147.074 75.7577 148.76C71.4688 150.274 68.0527 150.318 65.9879 149.127C61.5941 146.594 59.7675 136.81 62.259 123.689C64.5528 111.608 70.3494 96.8971 78.4784 82.801ZM73.3236 79.8282C64.8787 94.4716 58.8393 109.799 56.4128 122.579C53.4994 137.922 55.7745 150.106 63.0151 154.282C70.4938 158.595 83.0452 154.162 95.2673 143.478C104.454 135.448 113.94 123.054 122.509 108.194C130.676 94.0311 136.533 79.7418 139.006 67.7354C142.401 51.2591 140.181 37.9855 132.602 33.6152C125.336 29.4247 113.452 33.794 101.45 44.2392C91.6621 52.7569 81.6652 65.3637 73.3236 79.8282ZM78.4971 105.253C70.4453 91.3446 64.7575 76.997 62.4005 64.9506C59.7827 51.5718 61.5214 41.4798 65.8962 38.9472C70.5564 36.2493 80.8611 40.0959 91.7221 49.7396C100.369 57.4172 109.442 69.1338 117.336 82.7686C125.628 97.0922 131.387 110.919 133.614 122.167C135.007 129.208 135.206 135.574 134.283 140.55C133.453 145.023 131.785 148.004 129.722 149.198C125.333 151.739 115.944 148.437 105.82 139.725C96.4998 131.704 86.6497 119.335 78.4971 105.253ZM73.3472 108.234C81.8165 122.863 92.0797 135.751 101.939 144.235C113.777 154.422 125.47 158.536 132.703 154.349C140.175 150.024 142.603 136.935 139.45 121.011C137.081 109.042 131.081 94.6328 122.486 79.7872C114.294 65.6384 104.839 53.4289 95.6734 45.2899C83.0941 34.1207 70.4858 29.4142 62.915 33.7973C55.655 38 53.5053 50.4783 56.5606 66.0932C59.052 78.8265 64.9814 93.7836 73.3472 108.234Z" fill="#00D8FF"/>
</g>
<defs>
<filter id="filter0_d_62_107" x="-0.230774" y="0" width="196.462" height="196.462" filterUnits="userSpaceOnUse" color-interpolation-filters="sRGB">
<feFlood flood-opacity="0" result="BackgroundImageFix"/>
<feColorMatrix in="SourceAlpha" type="matrix" values="0 0 0 0 0 0 0 0 0 0 0 0 0 0 0 0 0 0 127 0" result="hardAlpha"/>
<feOffset dy="4"/>
<feGaussianBlur stdDeviation="2"/>
<feComposite in2="hardAlpha" operator="out"/>
<feColorMatrix type="matrix" values="0 0 0 0 0 0 0 0 0 0 0 0 0 0 0 0 0 0 0.25 0"/>
<feBlend mode="normal" in2="BackgroundImageFix" result="effect1_dropShadow_62_107"/>
<feBlend mode="normal" in="SourceGraphic" in2="effect1_dropShadow_62_107" result="shape"/>
</filter>
<clipPath id="clip0_62_107">
<rect width="196" height="196" fill="white"/>
</clipPath>
</defs>
</svg>
