<svg width="197" height="198" viewBox="0 0 197 198" fill="none" xmlns="http://www.w3.org/2000/svg">
<g filter="url(#filter0_d_62_156)">
<path d="M164.686 0.913086H32.6455C17.019 0.913086 4.3512 13.5809 4.3512 29.2074V161.248C4.3512 176.874 17.019 189.542 32.6455 189.542H164.686C180.312 189.542 192.98 176.874 192.98 161.248V29.2074C192.98 13.5809 180.312 0.913086 164.686 0.913086Z" fill="#2458FF"/>
</g>
<path d="M65.184 81.3943C69.6482 63.5793 80.8087 54.6719 98.6656 54.6719C125.451 54.6719 128.799 74.7137 142.192 78.054C151.12 80.2808 158.932 76.9405 165.629 68.0331C161.165 85.848 150.004 94.7555 132.147 94.7555C105.362 94.7555 102.014 74.7137 88.6211 71.3734C79.6927 69.1465 71.8803 72.4868 65.184 81.3943ZM31.7024 121.478C36.1666 103.663 47.3271 94.7555 65.184 94.7555C91.9693 94.7555 95.3174 114.797 108.71 118.138C117.639 120.364 125.451 117.024 132.147 108.117C127.683 125.932 116.522 134.839 98.6656 134.839C71.8803 134.839 68.5322 114.797 55.1395 111.457C46.2111 109.23 38.3987 112.57 31.7024 121.478Z" fill="#44A8B3"/>
<defs>
<filter id="filter0_d_62_156" x="0.351196" y="0.913086" width="196.629" height="196.629" filterUnits="userSpaceOnUse" color-interpolation-filters="sRGB">
<feFlood flood-opacity="0" result="BackgroundImageFix"/>
<feColorMatrix in="SourceAlpha" type="matrix" values="0 0 0 0 0 0 0 0 0 0 0 0 0 0 0 0 0 0 127 0" result="hardAlpha"/>
<feOffset dy="4"/>
<feGaussianBlur stdDeviation="2"/>
<feComposite in2="hardAlpha" operator="out"/>
<feColorMatrix type="matrix" values="0 0 0 0 0 0 0 0 0 0 0 0 0 0 0 0 0 0 0.25 0"/>
<feBlend mode="normal" in2="BackgroundImageFix" result="effect1_dropShadow_62_156"/>
<feBlend mode="normal" in="SourceGraphic" in2="effect1_dropShadow_62_156" result="shape"/>
</filter>
</defs>
</svg>
