<svg width="96" height="138" viewBox="0 0 96 138" fill="none" xmlns="http://www.w3.org/2000/svg">
<ellipse cx="59.6378" cy="60.1758" rx="35.6437" ry="36.6983" fill="white"/>
<rect x="41.2887" y="75.3613" width="38.3856" height="47.2438" fill="white"/>
<path d="M63 64C63 59.0294 67.0294 55 72 55H86C90.9706 55 95 59.0294 95 64V71C95 82.0457 86.0457 91 75 91H72C67.0294 91 63 86.9706 63 82V64Z" fill="white"/>
<path d="M60.6924 105.31L90.2822 130.936L69.952 135.211C63.8457 136.495 57.5391 136.495 51.4328 135.211L31.1026 130.936L60.6924 105.31Z" fill="white"/>
<path d="M87.8812 6.63266L81.9082 26.5235C81.2565 25.6262 80.4641 24.8402 79.5617 24.1956L79.4478 24.1142C78.8878 23.6942 78.275 23.3498 77.6251 23.0899L77.5496 23.0597L77.4364 23.0172C76.3913 22.6253 75.3006 22.3674 74.1906 22.2496L87.8812 6.63266Z" fill="white"/>
<path d="M54.9823 0.475774L61.5565 20.1761C60.5069 19.818 59.4064 19.6318 58.2975 19.6247L58.1575 19.6238C57.4579 19.603 56.7585 19.6744 56.0775 19.8363L55.9984 19.855L55.8815 19.8855C54.8013 20.1672 53.7612 20.5845 52.786 21.1276L54.9823 0.475774Z" fill="white"/>
<path d="M25.8198 10.7912L40.7713 25.2056C39.6752 25.3744 38.6137 25.7191 37.6276 26.2264L37.5031 26.2905C36.8734 26.5961 36.2867 26.9834 35.7581 27.4423L35.6967 27.4955L35.6072 27.5767C34.7803 28.3266 34.0518 29.1783 33.4391 30.1113L25.8198 10.7912Z" fill="white"/>
<path d="M8.06488 29.2935L27.0802 37.6446C26.1102 38.1822 25.2335 38.8729 24.4838 39.6901L24.3892 39.7932C23.9041 40.2979 23.4876 40.8643 23.1504 41.4777L23.1113 41.5489L23.0554 41.656C22.539 42.6457 22.1502 43.6968 21.8982 44.7842L8.06488 29.2935Z" fill="white"/>
<path d="M0.194343 56.1827L20.6635 52.6701C20.1504 53.6533 19.7996 54.7129 19.6245 55.8079L19.6024 55.9461C19.4758 56.6345 19.4404 57.3367 19.4972 58.0343L19.5038 58.1153L19.5162 58.2355C19.6308 59.3459 19.8857 60.4372 20.2748 61.4835L0.194343 56.1827Z" fill="white"/>
<path d="M4.15095 81.6567L21.619 70.4233C21.5311 71.5288 21.6223 72.6412 21.8891 73.7176L21.9227 73.8534C22.0753 74.5366 22.3172 75.1967 22.6421 75.8167L22.6798 75.8886L22.7382 75.9945C23.2777 76.9717 23.9389 77.8766 24.7059 78.6876L4.15095 81.6567Z" fill="white"/>
<rect x="72.5033" y="56.3795" width="11.3891" height="5.90547" rx="2.95274" fill="black"/>
<path d="M54.6958 71.546C54.5162 71.0237 53.9472 70.7459 53.425 70.9255C52.9027 71.1051 52.6249 71.6741 52.8045 72.1964L54.6958 71.546ZM78.8636 92.5L79.8636 92.5L79.8636 90.5L78.8636 90.5L78.8636 92.5ZM52.8045 72.1964L57.2338 85.077L59.1251 84.4267L54.6958 71.546L52.8045 72.1964ZM67.636 92.5L78.8636 92.5L78.8636 90.5L67.636 90.5L67.636 92.5ZM57.2338 85.077C58.7611 89.5183 62.9395 92.5 67.636 92.5L67.636 90.5C63.7934 90.5 60.3747 88.0604 59.1251 84.4267L57.2338 85.077Z" fill="black"/>
</svg>
