<svg width="264" height="264" viewBox="0 0 264 264" fill="none" xmlns="http://www.w3.org/2000/svg">
<circle cx="132" cy="132" r="132" fill="black"/>
<path d="M135.5 161C155.658 161 172 144.211 172 123.5C172 102.789 155.658 86 135.5 86C115.342 86 99 102.789 99 123.5C99 144.211 115.342 161 135.5 161Z" fill="white"/>
<path d="M156 139H117V187H156V139Z" fill="white"/>
<path d="M139 127.25C139 122.141 143.155 118 148.281 118H162.719C167.845 118 172 122.141 172 127.25V134.444C172 145.797 162.766 155 151.375 155H148.281C143.155 155 139 150.859 139 145.75V127.25Z" fill="white"/>
<path d="M137 170L167 195.739L146.388 200.033C140.197 201.322 133.803 201.322 127.612 200.033L107 195.739L137 170Z" fill="white"/>
<path d="M164 69L158.328 89C157.709 88.0978 156.957 87.3075 156.1 86.6593L155.992 86.5775C155.46 86.1552 154.878 85.8089 154.261 85.5476L154.19 85.5172L154.082 85.4745C153.09 85.0804 152.054 84.8211 151 84.7026L164 69Z" fill="white"/>
<path d="M131.254 63L138 83.0325C136.923 82.6683 135.794 82.479 134.656 82.4718L134.512 82.4708C133.794 82.4497 133.076 82.5223 132.378 82.6869L132.296 82.7059L132.177 82.737C131.068 83.0234 130.001 83.4477 129 84L131.254 63Z" fill="white"/>
<path d="M101 73L116 87.9217C114.9 88.0964 113.835 88.4532 112.846 88.9784L112.721 89.0447C112.089 89.3611 111.501 89.762 110.971 90.2371L110.909 90.2921L110.819 90.3762C109.99 91.1525 109.259 92.0342 108.644 93L101 73Z" fill="white"/>
<path d="M83 92L102 100.626C101.031 101.181 100.155 101.894 99.4057 102.738L99.3112 102.845C98.8265 103.366 98.4103 103.951 98.0734 104.585L98.0343 104.658L97.9784 104.769C97.4625 105.791 97.074 106.877 96.8222 108L83 92Z" fill="white"/>
<path d="M75 119.587L96 116C95.4736 117.004 95.1137 118.086 94.9341 119.204L94.9114 119.345C94.7815 120.048 94.7452 120.765 94.8035 121.478L94.8102 121.56L94.8229 121.683C94.9405 122.817 95.202 123.932 95.6012 125L75 119.587Z" fill="white"/>
<path d="M79 145L96.8463 134C96.7565 135.083 96.8496 136.172 97.1222 137.226L97.1565 137.359C97.3124 138.028 97.5596 138.674 97.8915 139.281L97.93 139.352L97.9897 139.455C98.5409 140.412 99.2164 141.298 100 142.093L79 145Z" fill="white"/>
<path d="M157.148 120H151.852C150.277 120 149 121.343 149 123C149 124.657 150.277 126 151.852 126H157.148C158.723 126 160 124.657 160 123C160 121.343 158.723 120 157.148 120Z" fill="black"/>
<path d="M130.938 134.687C130.759 134.155 130.192 133.873 129.672 134.056C129.152 134.238 128.876 134.817 129.054 135.348L130.938 134.687ZM155.004 156H156V153.966H155.004V156ZM129.054 135.348L133.465 148.45L135.348 147.788L130.938 134.687L129.054 135.348ZM143.824 156H155.004V153.966H143.824V156ZM133.465 148.45C134.986 152.967 139.147 156 143.824 156V153.966C139.997 153.966 136.593 151.484 135.348 147.788L133.465 148.45Z" fill="black"/>
</svg>
